<?xml version="1.0" encoding="UTF-8" standalone="no"?>
<svg
   xmlns:dc="http://purl.org/dc/elements/1.1/"
   xmlns:cc="http://creativecommons.org/ns#"
   xmlns:rdf="http://www.w3.org/1999/02/22-rdf-syntax-ns#"
   xmlns:svg="http://www.w3.org/2000/svg"
   xmlns="http://www.w3.org/2000/svg"
   xmlns:sodipodi="http://sodipodi.sourceforge.net/DTD/sodipodi-0.dtd"
   xmlns:inkscape="http://www.inkscape.org/namespaces/inkscape"
   width="348.34448"
   height="331.42929"
   version="1.1"
   id="svg5420"
   sodipodi:docname="fyysinenliikunta.svg"
   inkscape:version="0.92.2 (5c3e80d, 2017-08-06)">
  <metadata
     id="metadata5426">
    <rdf:RDF>
      <cc:Work
         rdf:about="">
        <dc:format>image/svg+xml</dc:format>
        <dc:type
           rdf:resource="http://purl.org/dc/dcmitype/StillImage" />
      </cc:Work>
    </rdf:RDF>
  </metadata>
  <defs
     id="defs5424" />
  <sodipodi:namedview
     pagecolor="#ffffff"
     bordercolor="#666666"
     borderopacity="1"
     objecttolerance="10"
     gridtolerance="10"
     guidetolerance="10"
     inkscape:pageopacity="0"
     inkscape:pageshadow="2"
     inkscape:window-width="1920"
     inkscape:window-height="1017"
     id="namedview5422"
     showgrid="false"
     inkscape:zoom="1.4677362"
     inkscape:cx="142.59422"
     inkscape:cy="239.43239"
     inkscape:window-x="-8"
     inkscape:window-y="-8"
     inkscape:window-maximized="1"
     inkscape:current-layer="svg5420" />
  <linearGradient
     id="XMLID_1_"
     x1="9.9999997e-006"
     x2="0.99915999"
     y1="0.5"
     y2="0.5">
    <stop
       offset="0"
       stop-color="#E5E5E5"
       id="stop5335" />
    <stop
       offset="0.1696"
       stop-color="#E2E2E2"
       id="stop5337" />
    <stop
       offset="0.3059"
       stop-color="#D8D8D8"
       id="stop5339" />
    <stop
       offset="0.4306"
       stop-color="#C7C7C7"
       id="stop5341" />
    <stop
       offset="0.5484"
       stop-color="#B0B0B0"
       id="stop5343" />
    <stop
       offset="0.6614"
       stop-color="#919191"
       id="stop5345" />
    <stop
       offset="0.7707"
       stop-color="#6B6B6B"
       id="stop5347" />
    <stop
       offset="0.8772"
       stop-color="#3E3E3E"
       id="stop5349" />
    <stop
       offset="0.9788"
       stop-color="#0C0C0C"
       id="stop5351" />
    <stop
       offset="1"
       stop-color="#000000"
       id="stop5353" />
  </linearGradient>
  <linearGradient
     id="XMLID_2_"
     x1="0.99998999"
     x2="0.00085000001"
     y1="0.5"
     y2="0.5">
    <stop
       offset="0"
       stop-color="#E5E5E5"
       id="stop5356" />
    <stop
       offset="0.2675"
       stop-color="#E2E2E2"
       id="stop5358" />
    <stop
       offset="0.4824"
       stop-color="#D8D8D8"
       id="stop5360" />
    <stop
       offset="0.679"
       stop-color="#C7C7C7"
       id="stop5362" />
    <stop
       offset="0.8635"
       stop-color="#B0B0B0"
       id="stop5364" />
    <stop
       offset="1"
       stop-color="#999999"
       id="stop5366" />
  </linearGradient>
  <linearGradient
     id="XMLID_3_"
     x1="0.5"
     x2="0.5"
     y1="1"
     y2="0.00139">
    <stop
       offset="0"
       stop-color="#E5E5E5"
       id="stop5369" />
    <stop
       offset="0.2675"
       stop-color="#E2E2E2"
       id="stop5371" />
    <stop
       offset="0.4824"
       stop-color="#D8D8D8"
       id="stop5373" />
    <stop
       offset="0.679"
       stop-color="#C7C7C7"
       id="stop5375" />
    <stop
       offset="0.8635"
       stop-color="#B0B0B0"
       id="stop5377" />
    <stop
       offset="1"
       stop-color="#999999"
       id="stop5379" />
  </linearGradient>
  <linearGradient
     id="XMLID_4_"
     x1="0.5"
     x2="0.5"
     y1="9.9999997e-006"
     y2="0.99998999">
    <stop
       offset="0"
       stop-color="#E5E5E5"
       id="stop5382" />
    <stop
       offset="0.1696"
       stop-color="#E2E2E2"
       id="stop5384" />
    <stop
       offset="0.3059"
       stop-color="#D8D8D8"
       id="stop5386" />
    <stop
       offset="0.4306"
       stop-color="#C7C7C7"
       id="stop5388" />
    <stop
       offset="0.5484"
       stop-color="#B0B0B0"
       id="stop5390" />
    <stop
       offset="0.6614"
       stop-color="#919191"
       id="stop5392" />
    <stop
       offset="0.7707"
       stop-color="#6B6B6B"
       id="stop5394" />
    <stop
       offset="0.8772"
       stop-color="#3E3E3E"
       id="stop5396" />
    <stop
       offset="0.9788"
       stop-color="#0C0C0C"
       id="stop5398" />
    <stop
       offset="1"
       stop-color="#000000"
       id="stop5400" />
  </linearGradient>
  <g
     id="g5405"
     transform="translate(-73,-50.999685)">
    <title
       id="title5403">Layer 1</title>
  </g>
  <g
     id="g5418"
     transform="translate(-73,-50.999685)">
    <title
       id="title5407">Layer 2</title>
    <g
       id="svg_1">
      <path
         d="M 191.297,382.42899 V 236.485 c -8.461,9.68401 -16.38102,17.78301 -23.90399,24.44301 -7.56101,6.552 -13.35602,12.02399 -21.133,15.15601 -8.06302,3.13198 -19.29501,6.11999 -26.06302,3.27596 -6.76898,-3.09698 -11.08798,-8.85598 -14.07599,-21.16799 -2.95199,-12.52799 -3.52801,-37.00899 -3.815,-52.63298 -0.46899,-15.73101 -3.492005,-32.39901 1.61899,-40.14 5.14801,-7.70401 23.112,-9.14402 28.76401,-5.43601 5.47299,3.744 3.31298,16.02001 4.35699,27.68401 0.93601,11.69999 1.47501,25.34399 1.61902,41.75999 5.93899,-6.11999 12.133,-12.132 18.97299,-18.432 6.84,-6.336 12.77899,-15.156 21.707,-18.972 8.81999,-3.816 19.90801,-5.04 30.924,-3.816 10.97999,1.224 22.824,10.62 34.164,10.836 11.23199,-0.036 22.60802,-7.164 32.58,-10.296 9.72101,-3.096 15.66001,4.104 26.02799,-8.13601 10.40402,-12.45599 25.84903,-47.66398 35.78402,-65.62799 9.72,-18.107999 14.57999,-35.279996 22.788,-41.796002 8.17199,-6.371994 22.5,-2.736 26.06299,3.276001 3.34899,5.832001 4.35601,10.944 -5.43601,32.004001 -9.97198,21.20399 -39.78,72.75601 -53.172,93.852 -13.42798,20.80901 -22.104,31.06799 -26.56799,30.925 v 149.18401 c -37.04401,9.8e-4 -74.12399,9.8e-4 -111.203,9.8e-4 z"
         id="svg_16"
         inkscape:connector-curvature="0"
         style="clip-rule:evenodd;fill:#000000;fill-rule:evenodd" />
      <path
         d="m 250.96001,89.397003 c 23.946,0 43.37999,19.449997 43.37999,43.415997 0,23.965 -19.43399,43.416 -43.37999,43.416 -23.945,0 -43.37999,-19.451 -43.37999,-43.416 -2e-5,-23.966 19.43498,-43.415997 43.37999,-43.415997"
         id="svg_17"
         inkscape:connector-curvature="0"
         style="clip-rule:evenodd;fill:#000000;fill-rule:evenodd" />
      <path
         d="m 78.97699,171.397 v 7.596 h 71.06299 v -7.596 z"
         id="svg_18"
         inkscape:connector-curvature="0"
         style="clip-rule:evenodd;fill:#000000;fill-rule:evenodd" />
      <path
         d="m 152.95599,149.68899 c -4.89599,0 -8.89203,3.96003 -8.89203,8.85601 0,10.72799 0,21.45599 0,32.18399 0,4.89599 3.99604,8.892 8.89203,8.892 1.29599,0 2.628,0 3.95999,0 4.896,0 8.85599,-3.99601 8.85599,-8.892 0,-10.728 0,-21.456 0,-32.18399 0,-4.896 -3.95999,-8.85601 -8.85599,-8.85601 -1.332,0 -2.664,0 -3.95999,0 z"
         id="svg_19"
         inkscape:connector-curvature="0"
         style="clip-rule:evenodd;fill:#000000;fill-rule:evenodd" />
      <path
         d="M 81.893005,149.68899 C 76.997009,149.68899 73,153.64902 73,158.545 c 0,10.72799 0,21.45599 0,32.18399 0,4.89599 3.996002,8.892 8.893005,8.892 1.294983,0 2.626984,0 3.959015,0 4.895996,0 8.855988,-3.99601 8.855988,-8.892 0,-10.728 0,-21.456 0,-32.18399 0,-4.896 -3.959991,-8.85601 -8.855988,-8.85601 -1.332031,0 -2.664032,0 -3.959015,0 z"
         id="svg_20"
         inkscape:connector-curvature="0"
         style="clip-rule:evenodd;fill:#000000;fill-rule:evenodd" />
      <path
         d="m 335.836,70.488998 -3.02301,6.984001 65.268,28.116001 3.02402,-6.984005 L 335.836,70.48899 Z"
         id="svg_21"
         inkscape:connector-curvature="0"
         style="clip-rule:evenodd;fill:#000000;fill-rule:evenodd" />
      <path
         d="m 412.336,79.813004 c -4.5,-1.908005 -9.72,0.143997 -11.664,4.643997 -4.21201,9.863998 -8.45999,19.691999 -12.70801,29.555999 -1.94299,4.5 0.14502,9.72 4.64502,11.664 1.18799,0.504 2.41199,1.04399 3.63599,1.54801 4.5,1.944 9.72,-0.14402 11.62799,-4.64402 4.24801,-9.82798 8.496,-19.69198 12.74402,-29.52 1.944,-4.5 -0.14402,-9.719986 -4.64402,-11.663986 -1.18899,-0.540001 -2.41198,-1.044014 -3.63699,-1.584 z"
         id="svg_22"
         inkscape:connector-curvature="0"
         style="clip-rule:evenodd;fill:#000000;fill-rule:evenodd" />
      <path
         d="m 347.06799,51.733002 c -4.5,-1.944 -9.72,0.108002 -11.664,4.608002 -4.212,9.863998 -8.45999,19.691986 -12.70801,29.556 -1.944,4.5 0.14402,9.719986 4.64402,11.664001 1.18798,0.503998 2.41198,1.043991 3.63699,1.547989 4.5,1.943996 9.72,-0.143997 11.62799,-4.607994 4.24802,-9.863998 8.496,-19.727997 12.74402,-29.556 1.94299,-4.5 -0.14502,-9.720001 -4.64502,-11.664001 -1.18698,-0.503998 -2.41199,-1.043999 -3.63599,-1.547997 z"
         id="svg_23"
         inkscape:connector-curvature="0"
         style="clip-rule:evenodd;fill:#000000;fill-rule:evenodd" />
    </g>
  </g>
</svg>
