<?xml version="1.0" encoding="UTF-8" standalone="no"?>
<!-- Created with Inkscape (http://www.inkscape.org/) -->

<svg
   xmlns:dc="http://purl.org/dc/elements/1.1/"
   xmlns:cc="http://creativecommons.org/ns#"
   xmlns:rdf="http://www.w3.org/1999/02/22-rdf-syntax-ns#"
   xmlns:svg="http://www.w3.org/2000/svg"
   xmlns="http://www.w3.org/2000/svg"
   xmlns:sodipodi="http://sodipodi.sourceforge.net/DTD/sodipodi-0.dtd"
   xmlns:inkscape="http://www.inkscape.org/namespaces/inkscape"
   width="215.11969mm"
   height="151.58269mm"
   viewBox="0 0 215.11969 151.58269"
   version="1.1"
   id="svg5047"
   inkscape:version="0.92.2 (5c3e80d, 2017-08-06)"
   sodipodi:docname="ihmiset.svg">
  <defs
     id="defs5041" />
  <sodipodi:namedview
     id="base"
     pagecolor="#ffffff"
     bordercolor="#666666"
     borderopacity="1.0"
     inkscape:pageopacity="0.0"
     inkscape:pageshadow="2"
     inkscape:zoom="0.98994949"
     inkscape:cx="266.78432"
     inkscape:cy="303.14743"
     inkscape:document-units="mm"
     inkscape:current-layer="layer1"
     showgrid="false"
     fit-margin-top="20"
     fit-margin-left="20"
     fit-margin-right="20"
     fit-margin-bottom="20"
     inkscape:window-width="1920"
     inkscape:window-height="1017"
     inkscape:window-x="-8"
     inkscape:window-y="-8"
     inkscape:window-maximized="1" />
  <metadata
     id="metadata5044">
    <rdf:RDF>
      <cc:Work
         rdf:about="">
        <dc:format>image/svg+xml</dc:format>
        <dc:type
           rdf:resource="http://purl.org/dc/dcmitype/StillImage" />
        <dc:title />
      </cc:Work>
    </rdf:RDF>
  </metadata>
  <g
     inkscape:label="Layer 1"
     inkscape:groupmode="layer"
     id="layer1"
     transform="translate(9.2860332,-52.444917)">
    <g
       id="g6547">
      <path
         inkscape:connector-curvature="0"
         id="path5608"
         d="m 39.568,93.021547 c -1.38126,6.569061 -6.803971,10.989583 -12.111949,9.873483 -5.307978,-1.11609 -8.491215,-7.346163 -7.109955,-13.915224 1.38126,-6.569063 6.80397,-10.989585 12.111948,-9.87349 5.307979,1.116096 8.491216,7.346168 7.109956,13.915231 z"
         style="opacity:1;fill:#cd3e44;fill-opacity:1;stroke-width:1.00268614" />
      <path
         inkscape:connector-curvature="0"
         id="path5002"
         d="m 32.171856,105.37448 c -3.537314,-0.0604 -7.095111,0.64457 -9.9883,1.49742 -2.971517,0.8198 -5.663667,2.09183 -7.542729,3.90621 -2.599827,2.58943 -3.428909,5.77869 -3.717917,8.48617 -0.566198,4.98844 0.144837,10.1928 0.635462,13.68973 1.653054,5.97125 2.009505,13.1159 3.030873,18.58701 0.09064,0.15328 0.191932,0.33144 0.346543,0.51231 0.05687,0.0671 0.141283,0.15372 0.240359,0.1555 0.639638,-0.23459 0.861959,-0.5471 0.980361,-0.66399 0.445352,-0.70153 0.831392,-4.53771 1.59894,-4.88981 0.07686,-0.0889 0.347876,-0.04 0.461124,0.072 1.419982,5.2005 2.881594,11.2458 3.680553,15.67342 0.667051,3.70792 1.31162,7.76083 1.891991,12.16672 0.223476,1.70788 0.291896,3.52324 0.685666,5.41345 0.191488,0.0711 0.418962,0.22303 0.764972,0.4274 0.141283,0.084 0.32655,0.12529 0.487559,0.1635 h 0.0013 c 0.645547,-0.41496 1.060954,-0.76062 1.434821,-0.95068 0.540962,-1.03848 1.139415,-2.07495 1.884038,-3.03234 0.80087,-0.84175 1.35214,-1.79541 2.079613,-1.74471 0.374977,-0.2488 0.984671,0.48005 1.827214,1.09059 0.791895,0.77638 1.427091,1.67473 2.066329,2.6323 0.143949,0.23503 0.334992,0.58228 0.710813,0.97334 1.225785,0.26657 2.07637,0.064 2.368932,-0.45317 0.521281,-1.79554 0.280789,-3.48071 0.314555,-5.09325 0.231917,-7.69285 0.462723,-15.92396 0.677758,-24.4418 0.0034,-0.18971 0.19593,-3.47134 0.199484,-3.66123 0.0311,-0.50604 0.184823,-0.49947 0.32344,-0.16705 0.454504,1.76137 0.302559,3.60653 0.434511,5.3372 0.857383,2.30865 1.703925,1.39493 2.629195,-9.7e-4 0.389194,-0.62316 0.472987,-1.16043 0.521858,-1.52701 0.211924,-0.99463 0.356317,-1.98245 0.494135,-2.94562 1.180911,-8.21889 1.912961,-16.00962 1.956679,-23.65857 0.02666,-3.33486 -0.05465,-6.58845 -1.037141,-9.79842 -0.644303,-2.23591 -1.99622,-4.47555 -4.548909,-5.93752 -2.403275,-1.26271 -5.141631,-1.77181 -7.892915,-1.81864 z"
         style="opacity:1;fill:#cd3e44;fill-opacity:1;stroke-width:1.08341146" />
      <path
         inkscape:connector-curvature="0"
         id="path5604"
         d="m 101.79019,98.916224 c -3.484754,3.353856 -7.942456,-0.223491 -11.701958,0.704293 -6.316722,1.579343 -9.768734,0.516723 -10.760158,7.783523 -0.719476,5.60368 -1.230316,7.82248 -1.502752,11.80171 -0.44162,6.45026 -6.481019,-17.44491 -7.894426,-15.55137 -1.589477,3.5511 4.730356,22.82709 5.176596,24.89433 1.807044,7.29743 7.224843,2.3274 8.837734,-2.44803 0.04754,-0.14017 0.438954,-0.0249 0.598231,0.0808 2.57277,5.72361 1.806866,30.19351 2.75586,35.02895 0.868179,4.16272 1.026167,8.714 1.777899,13.66132 0.291451,1.91748 0.183045,4.02813 0.889593,6.07846 0.0933,0.27038 0.543939,0.25043 0.99249,0.47991 0.18349,0.0937 0.41985,0.18358 0.63253,0.18358 h 0.0018 c 0.934688,0 1.499553,-0.64678 1.861513,-1.06748 1.377775,-4.97551 -0.537986,-15.58799 4.272254,-16.3284 4.415854,-0.67969 3.659544,11.70444 5.921684,15.14476 0.1946,0.25641 0.3261,0.88114 0.9222,1.09291 1.53741,0.54629 2.80705,0.14616 3.07348,-0.50884 0.79687,-1.95975 0.34832,-3.90886 0.40786,-5.71893 0.28478,-8.63851 1.52687,-18.20573 1.80411,-27.76999 0.004,-0.21301 1.01906,-14.2617 1.03416,-14.47423 0.0458,-0.65784 0.28923,-0.58591 0.41941,-0.18757 0.64084,1.9576 0.55927,14.49504 1.0869,16.3561 0.77581,2.74245 2.22321,1.57825 3.41114,-0.001 0.51746,-0.68794 0.5873,-1.30922 0.67704,-1.7146 0.2488,-1.12448 0.46166,-2.22612 0.64111,-3.30746 1.53141,-9.22867 -0.52279,-16.99932 -0.45855,-25.58785 0.0267,-3.74463 -0.0977,-7.38614 -1.34556,-11.0021 -1.24938,-6.00327 -10.52562,-10.222758 -13.53163,-7.62333 z"
         style="opacity:1;fill:#3771c8;fill-opacity:1;stroke-width:1.14802957" />
      <path
         inkscape:connector-curvature="0"
         id="path5012"
         d="m 105.76943,83.34727 c 0,7.077474 -3.97825,12.814922 -8.885665,12.814922 -4.907421,0 -8.885676,-5.737448 -8.885676,-12.814922 0,-7.077475 3.978255,-10.902353 8.885676,-10.902353 4.907415,0 8.885665,3.824878 8.885665,10.902353 z"
         style="opacity:1;fill:#3771c8;fill-opacity:1;stroke-width:0.97930962" />
      <path
         d="m 151.71571,86.732739 c 0.32344,6.601998 5.30921,11.756513 11.13584,11.513 5.82668,-0.243469 10.28788,-5.792954 9.9644,-12.394952 -0.32344,-6.601954 -5.30922,-11.756469 -11.13589,-11.512956 -5.82663,0.243469 -10.28784,5.792954 -9.96435,12.394908 z m 5.97213,12.475678 c 4.49848,-0.299448 9.05766,0.267016 12.77779,1.044693 3.81828,0.73512 7.30157,2.00111 9.77474,3.93504 3.42522,2.76537 4.62448,6.32641 5.11461,9.37661 0.94602,5.61768 0.27635,11.5636 -0.18971,15.5596 -1.83352,6.87674 -1.96409,14.99891 -3.01647,21.26747 -0.10841,0.17949 -0.22926,0.38831 -0.41763,0.60334 -0.0693,0.0795 -0.17283,0.18349 -0.29945,0.19193 -0.82455,-0.22436 -1.12156,-0.56388 -1.2775,-0.6886 -0.5985,-0.76617 0.52972,-12.02401 -2.47974,-12.33421 -3.07606,-0.096 -2.2344,3.42779 -2.51301,6.69743 -0.27857,3.26963 -1.00493,13.24633 -1.8214,18.3175 -0.68126,4.24675 -1.31828,8.88305 -1.85751,13.9153 -0.20748,1.95064 -0.21281,4.01292 -0.62782,6.18126 -0.23992,0.0933 -0.52328,0.28034 -0.95406,0.53447 -0.17638,0.10441 -0.40963,0.1635 -0.61307,0.21726 l -0.001,9e-5 c -0.84023,-0.42785 -1.38452,-0.79287 -1.86875,-0.98392 -1.42167,-2.29273 -3.22649,-17.76094 -5.30308,-17.88836 -2.11996,-0.13018 -3.52577,15.43013 -4.74284,17.20687 -0.17283,0.27591 -0.39986,0.68194 -0.8605,1.14977 -1.54784,0.38209 -2.63928,0.20837 -3.035,-0.35898 -0.74449,-2.00129 -0.51466,-3.92727 -0.63058,-5.75293 -0.64297,-8.70511 -0.14839,-24.05443 -0.80731,-33.69583 -0.0133,-0.21459 -0.22614,-2.02243 -0.99564,-2.01208 -1.76888,2.21787 -1.20633,7.0477 -1.31349,9.81889 -0.98676,2.67305 -2.10529,1.6926 -3.34574,0.17105 -0.5231,-0.68091 -0.65439,-1.28447 -0.73312,-1.69681 -0.31499,-1.11361 -0.54296,-2.22397 -0.76199,-3.30674 -1.87426,-9.23941 -3.15794,-18.0228 -3.55944,-26.69047 -0.18616,-3.77842 -0.22836,-7.47195 0.87675,-11.17485 0.71877,-2.57664 2.33788,-5.2037 5.52008,-7.02776 3.00097,-1.58836 6.46262,-2.344404 9.96146,-2.577299 z"
         style="opacity:1;fill:#71c837;fill-opacity:1;stroke-width:1.03167987"
         id="path5014"
         inkscape:connector-curvature="0" />
    </g>
  </g>
</svg>
